<?xml version="1.0" encoding="UTF-8" standalone="no"?>
<!DOCTYPE svg PUBLIC "-//W3C//DTD SVG 1.1//EN"
 "http://www.w3.org/Graphics/SVG/1.1/DTD/svg11.dtd">
<!-- Generated by graphviz version 2.40.1 (20161225.0304)
 -->
<!-- Title: dependencies Pages: 1 -->
<svg width="574pt" height="284pt"
 viewBox="0.00 0.00 574.00 284.00" xmlns="http://www.w3.org/2000/svg" xmlns:xlink="http://www.w3.org/1999/xlink">
<g id="graph0" class="graph" transform="scale(1 1) rotate(0) translate(4 280)">
<title>dependencies</title>
<polygon fill="#ffffff" stroke="transparent" points="-4,4 -4,-280 570,-280 570,4 -4,4"/>
<text text-anchor="start" x="262.0091" y="-42.4" font-family="sans-serif" font-weight="bold" font-size="14.00" fill="#000000">Legend</text>
<polygon fill="#ffffb3" stroke="transparent" points="49,-10 49,-30 69,-30 69,-10 49,-10"/>
<text text-anchor="start" x="72.629" y="-15.4" font-family="sans-serif" font-size="14.00" fill="#000000"> &#160;Declarations</text>
<polygon fill="#8dd3c7" stroke="transparent" points="162,-10 162,-30 182,-30 182,-10 162,-10"/>
<text text-anchor="start" x="185.7251" y="-15.4" font-family="sans-serif" font-size="14.00" fill="#000000"> &#160;Module</text>
<polygon fill="#80b1d3" stroke="transparent" points="248,-10 248,-30 268,-30 268,-10 248,-10"/>
<text text-anchor="start" x="271.7812" y="-15.4" font-family="sans-serif" font-size="14.00" fill="#000000"> &#160;Bootstrap</text>
<polygon fill="#fdb462" stroke="transparent" points="345,-10 345,-30 365,-30 365,-10 345,-10"/>
<text text-anchor="start" x="368.6732" y="-15.4" font-family="sans-serif" font-size="14.00" fill="#000000"> &#160;Providers</text>
<polygon fill="#fb8072" stroke="transparent" points="441,-10 441,-30 461,-30 461,-10 441,-10"/>
<text text-anchor="start" x="464.7258" y="-15.4" font-family="sans-serif" font-size="14.00" fill="#000000"> &#160;Exports</text>
<g id="clust1" class="cluster">
<title>cluster_SharedModule</title>
<polygon fill="none" stroke="#000000" stroke-dasharray="1,5" points="8,-70 8,-268 558,-268 558,-70 8,-70"/>
</g>
<g id="clust2" class="cluster">
<title>cluster_SharedModule_declarations</title>
<polygon fill="none" stroke="#000000" points="22,-78 22,-130 544,-130 544,-78 22,-78"/>
</g>
<g id="clust7" class="cluster">
<title>cluster_SharedModule_exports</title>
<polygon fill="none" stroke="#000000" points="16,-208 16,-260 550,-260 550,-208 16,-208"/>
</g>
<!-- ColoreTestoComponent -->
<g id="node1" class="node">
<title>ColoreTestoComponent</title>
<polygon fill="#ffffb3" stroke="#000000" points="536.0379,-122 385.9621,-122 385.9621,-86 536.0379,-86 536.0379,-122"/>
<text text-anchor="middle" x="461" y="-99.8" font-family="Times,serif" font-size="14.00" fill="#000000">ColoreTestoComponent</text>
</g>
<!-- SharedModule -->
<g id="node4" class="node">
<title>SharedModule</title>
<polygon fill="#8dd3c7" stroke="#000000" points="336.4231,-187 333.4231,-191 312.4231,-191 309.4231,-187 237.5769,-187 237.5769,-151 336.4231,-151 336.4231,-187"/>
<text text-anchor="middle" x="287" y="-164.8" font-family="Times,serif" font-size="14.00" fill="#000000">SharedModule</text>
</g>
<!-- ColoreTestoComponent&#45;&gt;SharedModule -->
<g id="edge1" class="edge">
<title>ColoreTestoComponent&#45;&gt;SharedModule</title>
<path fill="none" stroke="#000000" d="M486.8395,-122.0225C486.8395,-139.3734 486.8395,-163 486.8395,-163 486.8395,-163 346.3985,-163 346.3985,-163"/>
<polygon fill="#000000" stroke="#000000" points="346.3986,-159.5001 336.3985,-163 346.3985,-166.5001 346.3986,-159.5001"/>
</g>
<!-- NumeriScarpeComponent -->
<g id="node2" class="node">
<title>NumeriScarpeComponent</title>
<polygon fill="#ffffb3" stroke="#000000" points="368.1825,-122 205.8175,-122 205.8175,-86 368.1825,-86 368.1825,-122"/>
<text text-anchor="middle" x="287" y="-99.8" font-family="Times,serif" font-size="14.00" fill="#000000">NumeriScarpeComponent</text>
</g>
<!-- NumeriScarpeComponent&#45;&gt;SharedModule -->
<g id="edge2" class="edge">
<title>NumeriScarpeComponent&#45;&gt;SharedModule</title>
<path fill="none" stroke="#000000" d="M287,-122.1061C287,-122.1061 287,-140.991 287,-140.991"/>
<polygon fill="#000000" stroke="#000000" points="283.5001,-140.9909 287,-150.991 290.5001,-140.991 283.5001,-140.9909"/>
</g>
<!-- TipoChiusuraComponent -->
<g id="node3" class="node">
<title>TipoChiusuraComponent</title>
<polygon fill="#ffffb3" stroke="#000000" points="188.3229,-122 29.6771,-122 29.6771,-86 188.3229,-86 188.3229,-122"/>
<text text-anchor="middle" x="109" y="-99.8" font-family="Times,serif" font-size="14.00" fill="#000000">TipoChiusuraComponent</text>
</g>
<!-- TipoChiusuraComponent&#45;&gt;SharedModule -->
<g id="edge3" class="edge">
<title>TipoChiusuraComponent&#45;&gt;SharedModule</title>
<path fill="none" stroke="#000000" d="M133.8871,-122.0225C133.8871,-139.3734 133.8871,-163 133.8871,-163 133.8871,-163 227.7113,-163 227.7113,-163"/>
<polygon fill="#000000" stroke="#000000" points="227.7113,-166.5001 237.7113,-163 227.7113,-159.5001 227.7113,-166.5001"/>
</g>
<!-- ColoreTestoComponent  -->
<g id="node5" class="node">
<title>ColoreTestoComponent </title>
<polygon fill="#fb8072" stroke="#000000" points="542.0372,-252 387.9628,-252 387.9628,-216 542.0372,-216 542.0372,-252"/>
<text text-anchor="middle" x="465" y="-229.8" font-family="Times,serif" font-size="14.00" fill="#000000">ColoreTestoComponent </text>
</g>
<!-- SharedModule&#45;&gt;ColoreTestoComponent  -->
<g id="edge4" class="edge">
<title>SharedModule&#45;&gt;ColoreTestoComponent </title>
<path fill="none" stroke="#000000" stroke-dasharray="5,2" d="M336.25,-175C380.1161,-175 437.4105,-175 437.4105,-175 437.4105,-175 437.4105,-205.9775 437.4105,-205.9775"/>
<polygon fill="#000000" stroke="#000000" points="433.9106,-205.9774 437.4105,-215.9775 440.9106,-205.9775 433.9106,-205.9774"/>
</g>
<!-- NumeriScarpeComponent  -->
<g id="node6" class="node">
<title>NumeriScarpeComponent </title>
<polygon fill="#fb8072" stroke="#000000" points="369.6827,-252 204.3173,-252 204.3173,-216 369.6827,-216 369.6827,-252"/>
<text text-anchor="middle" x="287" y="-229.8" font-family="Times,serif" font-size="14.00" fill="#000000">NumeriScarpeComponent </text>
</g>
<!-- SharedModule&#45;&gt;NumeriScarpeComponent  -->
<g id="edge5" class="edge">
<title>SharedModule&#45;&gt;NumeriScarpeComponent </title>
<path fill="none" stroke="#000000" stroke-dasharray="5,2" d="M287,-187.1061C287,-187.1061 287,-205.991 287,-205.991"/>
<polygon fill="#000000" stroke="#000000" points="283.5001,-205.9909 287,-215.991 290.5001,-205.991 283.5001,-205.9909"/>
</g>
<!-- TipoChiusuraComponent  -->
<g id="node7" class="node">
<title>TipoChiusuraComponent </title>
<polygon fill="#fb8072" stroke="#000000" points="185.8227,-252 24.1773,-252 24.1773,-216 185.8227,-216 185.8227,-252"/>
<text text-anchor="middle" x="105" y="-229.8" font-family="Times,serif" font-size="14.00" fill="#000000">TipoChiusuraComponent </text>
</g>
<!-- SharedModule&#45;&gt;TipoChiusuraComponent  -->
<g id="edge6" class="edge">
<title>SharedModule&#45;&gt;TipoChiusuraComponent </title>
<path fill="none" stroke="#000000" stroke-dasharray="5,2" d="M237.6035,-175C176.9036,-175 81.8629,-175 81.8629,-175 81.8629,-175 81.8629,-205.9775 81.8629,-205.9775"/>
<polygon fill="#000000" stroke="#000000" points="78.363,-205.9774 81.8629,-215.9775 85.363,-205.9775 78.363,-205.9774"/>
</g>
</g>
</svg>
