<?xml version="1.0" encoding="UTF-8" standalone="no"?>
<!DOCTYPE svg PUBLIC "-//W3C//DTD SVG 1.1//EN"
 "http://www.w3.org/Graphics/SVG/1.1/DTD/svg11.dtd">
<!-- Generated by graphviz version 2.40.1 (20161225.0304)
 -->
<!-- Title: dependencies Pages: 1 -->
<svg width="862pt" height="211pt"
 viewBox="0.00 0.00 862.00 211.00" xmlns="http://www.w3.org/2000/svg" xmlns:xlink="http://www.w3.org/1999/xlink">
<g id="graph0" class="graph" transform="scale(1 1) rotate(0) translate(4 207)">
<title>dependencies</title>
<polygon fill="#ffffff" stroke="transparent" points="-4,4 -4,-207 858,-207 858,4 -4,4"/>
<text text-anchor="start" x="406.0091" y="-42.4" font-family="sans-serif" font-weight="bold" font-size="14.00" fill="#000000">Legend</text>
<polygon fill="#ffffb3" stroke="transparent" points="193,-10 193,-30 213,-30 213,-10 193,-10"/>
<text text-anchor="start" x="216.629" y="-15.4" font-family="sans-serif" font-size="14.00" fill="#000000"> &#160;Declarations</text>
<polygon fill="#8dd3c7" stroke="transparent" points="306,-10 306,-30 326,-30 326,-10 306,-10"/>
<text text-anchor="start" x="329.7251" y="-15.4" font-family="sans-serif" font-size="14.00" fill="#000000"> &#160;Module</text>
<polygon fill="#80b1d3" stroke="transparent" points="392,-10 392,-30 412,-30 412,-10 392,-10"/>
<text text-anchor="start" x="415.7812" y="-15.4" font-family="sans-serif" font-size="14.00" fill="#000000"> &#160;Bootstrap</text>
<polygon fill="#fdb462" stroke="transparent" points="489,-10 489,-30 509,-30 509,-10 489,-10"/>
<text text-anchor="start" x="512.6732" y="-15.4" font-family="sans-serif" font-size="14.00" fill="#000000"> &#160;Providers</text>
<polygon fill="#fb8072" stroke="transparent" points="585,-10 585,-30 605,-30 605,-10 585,-10"/>
<text text-anchor="start" x="608.7258" y="-15.4" font-family="sans-serif" font-size="14.00" fill="#000000"> &#160;Exports</text>
<g id="clust1" class="cluster">
<title>cluster_CartModule</title>
<polygon fill="none" stroke="#000000" stroke-dasharray="1,5" points="8,-70 8,-195 846,-195 846,-70 8,-70"/>
</g>
<g id="clust2" class="cluster">
<title>cluster_CartModule_declarations</title>
<polygon fill="none" stroke="#000000" points="423,-78 423,-130 838,-130 838,-78 423,-78"/>
</g>
<g id="clust6" class="cluster">
<title>cluster_CartModule_imports</title>
<polygon fill="none" stroke="#000000" points="154,-78 154,-130 415,-130 415,-78 154,-78"/>
</g>
<g id="clust9" class="cluster">
<title>cluster_CartModule_providers</title>
<polygon fill="none" stroke="#000000" points="16,-78 16,-130 146,-130 146,-78 16,-78"/>
</g>
<!-- AddressComponent -->
<g id="node1" class="node">
<title>AddressComponent</title>
<polygon fill="#ffffb3" stroke="#000000" points="829.7036,-122 702.2964,-122 702.2964,-86 829.7036,-86 829.7036,-122"/>
<text text-anchor="middle" x="766" y="-99.8" font-family="Times,serif" font-size="14.00" fill="#000000">AddressComponent</text>
</g>
<!-- CartModule -->
<g id="node4" class="node">
<title>CartModule</title>
<polygon fill="#8dd3c7" stroke="#000000" points="460.6529,-187 457.6529,-191 436.6529,-191 433.6529,-187 377.3471,-187 377.3471,-151 460.6529,-151 460.6529,-187"/>
<text text-anchor="middle" x="419" y="-164.8" font-family="Times,serif" font-size="14.00" fill="#000000">CartModule</text>
</g>
<!-- AddressComponent&#45;&gt;CartModule -->
<g id="edge1" class="edge">
<title>AddressComponent&#45;&gt;CartModule</title>
<path fill="none" stroke="#000000" d="M766,-122.2843C766,-143.3211 766,-175 766,-175 766,-175 470.8563,-175 470.8563,-175"/>
<polygon fill="#000000" stroke="#000000" points="470.8563,-171.5001 460.8563,-175 470.8563,-178.5001 470.8563,-171.5001"/>
</g>
<!-- CartComponent -->
<g id="node2" class="node">
<title>CartComponent</title>
<polygon fill="#ffffb3" stroke="#000000" points="684.9357,-122 579.0643,-122 579.0643,-86 684.9357,-86 684.9357,-122"/>
<text text-anchor="middle" x="632" y="-99.8" font-family="Times,serif" font-size="14.00" fill="#000000">CartComponent</text>
</g>
<!-- CartComponent&#45;&gt;CartModule -->
<g id="edge2" class="edge">
<title>CartComponent&#45;&gt;CartModule</title>
<path fill="none" stroke="#000000" d="M632,-122.0225C632,-139.3734 632,-163 632,-163 632,-163 470.8278,-163 470.8278,-163"/>
<polygon fill="#000000" stroke="#000000" points="470.8278,-159.5001 460.8278,-163 470.8278,-166.5001 470.8278,-159.5001"/>
</g>
<!-- PaymentComponent -->
<g id="node3" class="node">
<title>PaymentComponent</title>
<polygon fill="#ffffb3" stroke="#000000" points="561.3258,-122 430.6742,-122 430.6742,-86 561.3258,-86 561.3258,-122"/>
<text text-anchor="middle" x="496" y="-99.8" font-family="Times,serif" font-size="14.00" fill="#000000">PaymentComponent</text>
</g>
<!-- PaymentComponent&#45;&gt;CartModule -->
<g id="edge3" class="edge">
<title>PaymentComponent&#45;&gt;CartModule</title>
<path fill="none" stroke="#000000" d="M445.8317,-122.1061C445.8317,-122.1061 445.8317,-140.991 445.8317,-140.991"/>
<polygon fill="#000000" stroke="#000000" points="442.3318,-140.9909 445.8317,-150.991 449.3318,-140.991 442.3318,-140.9909"/>
</g>
<!-- CartRoutingModule -->
<g id="node5" class="node">
<title>CartRoutingModule</title>
<polygon fill="#8dd3c7" stroke="#000000" points="407.2702,-122 404.2702,-126 383.2702,-126 380.2702,-122 278.7298,-122 278.7298,-86 407.2702,-86 407.2702,-122"/>
<text text-anchor="middle" x="343" y="-99.8" font-family="Times,serif" font-size="14.00" fill="#000000">CartRoutingModule</text>
</g>
<!-- CartRoutingModule&#45;&gt;CartModule -->
<g id="edge4" class="edge">
<title>CartRoutingModule&#45;&gt;CartModule</title>
<path fill="none" stroke="#000000" d="M392.2795,-122.1061C392.2795,-122.1061 392.2795,-140.991 392.2795,-140.991"/>
<polygon fill="#000000" stroke="#000000" points="388.7795,-140.9909 392.2795,-150.991 395.7795,-140.991 388.7795,-140.9909"/>
</g>
<!-- SharedModule -->
<g id="node6" class="node">
<title>SharedModule</title>
<polygon fill="#8dd3c7" stroke="#000000" points="260.4231,-122 257.4231,-126 236.4231,-126 233.4231,-122 161.5769,-122 161.5769,-86 260.4231,-86 260.4231,-122"/>
<text text-anchor="middle" x="211" y="-99.8" font-family="Times,serif" font-size="14.00" fill="#000000">SharedModule</text>
</g>
<!-- SharedModule&#45;&gt;CartModule -->
<g id="edge5" class="edge">
<title>SharedModule&#45;&gt;CartModule</title>
<path fill="none" stroke="#000000" d="M211,-122.0225C211,-139.3734 211,-163 211,-163 211,-163 366.9081,-163 366.9081,-163"/>
<polygon fill="#000000" stroke="#000000" points="366.9081,-166.5001 376.9081,-163 366.9081,-159.5001 366.9081,-166.5001"/>
</g>
<!-- CartService -->
<g id="node7" class="node">
<title>CartService</title>
<ellipse fill="#fdb462" stroke="#000000" cx="81" cy="-104" rx="56.7348" ry="18"/>
<text text-anchor="middle" x="81" y="-99.8" font-family="Times,serif" font-size="14.00" fill="#000000">CartService</text>
</g>
<!-- CartService&#45;&gt;CartModule -->
<g id="edge6" class="edge">
<title>CartService&#45;&gt;CartModule</title>
<path fill="none" stroke="#000000" d="M81,-122.2843C81,-143.3211 81,-175 81,-175 81,-175 367.2156,-175 367.2156,-175"/>
<polygon fill="#000000" stroke="#000000" points="367.2156,-178.5001 377.2156,-175 367.2155,-171.5001 367.2156,-178.5001"/>
</g>
</g>
</svg>
