<?xml version="1.0" encoding="UTF-8" standalone="no"?>
<!DOCTYPE svg PUBLIC "-//W3C//DTD SVG 1.1//EN"
 "http://www.w3.org/Graphics/SVG/1.1/DTD/svg11.dtd">
<!-- Generated by graphviz version 2.40.1 (20161225.0304)
 -->
<!-- Title: dependencies Pages: 1 -->
<svg width="4006pt" height="366pt"
 viewBox="0.00 0.00 4006.00 366.00" xmlns="http://www.w3.org/2000/svg" xmlns:xlink="http://www.w3.org/1999/xlink">
<g id="graph0" class="graph" transform="scale(1 1) rotate(0) translate(4 362)">
<title>dependencies</title>
<polygon fill="#ffffff" stroke="transparent" points="-4,4 -4,-362 4002,-362 4002,4 -4,4"/>
<text text-anchor="start" x="1978.0091" y="-42.4" font-family="sans-serif" font-weight="bold" font-size="14.00" fill="#000000">Legend</text>
<polygon fill="#ffffb3" stroke="transparent" points="1765,-10 1765,-30 1785,-30 1785,-10 1765,-10"/>
<text text-anchor="start" x="1788.629" y="-15.4" font-family="sans-serif" font-size="14.00" fill="#000000"> &#160;Declarations</text>
<polygon fill="#8dd3c7" stroke="transparent" points="1878,-10 1878,-30 1898,-30 1898,-10 1878,-10"/>
<text text-anchor="start" x="1901.7251" y="-15.4" font-family="sans-serif" font-size="14.00" fill="#000000"> &#160;Module</text>
<polygon fill="#80b1d3" stroke="transparent" points="1964,-10 1964,-30 1984,-30 1984,-10 1964,-10"/>
<text text-anchor="start" x="1987.7812" y="-15.4" font-family="sans-serif" font-size="14.00" fill="#000000"> &#160;Bootstrap</text>
<polygon fill="#fdb462" stroke="transparent" points="2061,-10 2061,-30 2081,-30 2081,-10 2061,-10"/>
<text text-anchor="start" x="2084.6732" y="-15.4" font-family="sans-serif" font-size="14.00" fill="#000000"> &#160;Providers</text>
<polygon fill="#fb8072" stroke="transparent" points="2157,-10 2157,-30 2177,-30 2177,-10 2157,-10"/>
<text text-anchor="start" x="2180.7258" y="-15.4" font-family="sans-serif" font-size="14.00" fill="#000000"> &#160;Exports</text>
<g id="clust1" class="cluster">
<title>cluster_AppModule</title>
<polygon fill="none" stroke="#000000" stroke-dasharray="1,5" points="1096,-146 1096,-350 1740,-350 1740,-146 1096,-146"/>
</g>
<g id="clust2" class="cluster">
<title>cluster_AppModule_declarations</title>
<polygon fill="none" stroke="#000000" points="1478,-154 1478,-206 1732,-206 1732,-154 1478,-154"/>
</g>
<g id="clust5" class="cluster">
<title>cluster_AppModule_imports</title>
<polygon fill="none" stroke="#000000" points="1104,-154 1104,-206 1470,-206 1470,-154 1104,-154"/>
</g>
<g id="clust7" class="cluster">
<title>cluster_AppModule_bootstrap</title>
<polygon fill="none" stroke="#000000" points="1336,-290 1336,-342 1460,-342 1460,-290 1336,-290"/>
</g>
<g id="clust15" class="cluster">
<title>cluster_CartModule</title>
<polygon fill="none" stroke="#000000" stroke-dasharray="1,5" points="1748,-146 1748,-274 2470,-274 2470,-146 1748,-146"/>
</g>
<g id="clust16" class="cluster">
<title>cluster_CartModule_declarations</title>
<polygon fill="none" stroke="#000000" points="2046,-154 2046,-206 2462,-206 2462,-154 2046,-154"/>
</g>
<g id="clust20" class="cluster">
<title>cluster_CartModule_imports</title>
<polygon fill="none" stroke="#000000" points="1894,-154 1894,-206 2038,-206 2038,-154 1894,-154"/>
</g>
<g id="clust23" class="cluster">
<title>cluster_CartModule_providers</title>
<polygon fill="none" stroke="#000000" points="1756,-154 1756,-206 1886,-206 1886,-154 1756,-154"/>
</g>
<g id="clust30" class="cluster">
<title>cluster_CoreModule</title>
<polygon fill="none" stroke="#000000" stroke-dasharray="1,5" points="1137,-70 1137,-138 1407,-138 1407,-70 1137,-70"/>
</g>
<g id="clust35" class="cluster">
<title>cluster_CoreModule_providers</title>
<polygon fill="none" stroke="#000000" points="1145,-78 1145,-130 1399,-130 1399,-78 1145,-78"/>
</g>
<g id="clust36" class="cluster">
<title>cluster_HomeModule</title>
<polygon fill="none" stroke="#000000" stroke-dasharray="1,5" points="2478,-146 2478,-274 2788,-274 2788,-146 2478,-146"/>
</g>
<g id="clust37" class="cluster">
<title>cluster_HomeModule_declarations</title>
<polygon fill="none" stroke="#000000" points="2648,-154 2648,-206 2780,-206 2780,-154 2648,-154"/>
</g>
<g id="clust39" class="cluster">
<title>cluster_HomeModule_imports</title>
<polygon fill="none" stroke="#000000" points="2486,-154 2486,-206 2640,-206 2640,-154 2486,-154"/>
</g>
<g id="clust49" class="cluster">
<title>cluster_LoginModule</title>
<polygon fill="none" stroke="#000000" stroke-dasharray="1,5" points="2796,-146 2796,-274 3254,-274 3254,-146 2796,-146"/>
</g>
<g id="clust50" class="cluster">
<title>cluster_LoginModule_declarations</title>
<polygon fill="none" stroke="#000000" points="3116,-154 3116,-206 3246,-206 3246,-154 3116,-154"/>
</g>
<g id="clust52" class="cluster">
<title>cluster_LoginModule_imports</title>
<polygon fill="none" stroke="#000000" points="2954,-154 2954,-206 3108,-206 3108,-154 2954,-154"/>
</g>
<g id="clust55" class="cluster">
<title>cluster_LoginModule_providers</title>
<polygon fill="none" stroke="#000000" points="2804,-154 2804,-206 2946,-206 2946,-154 2804,-154"/>
</g>
<g id="clust62" class="cluster">
<title>cluster_PersonalizzaModule</title>
<polygon fill="none" stroke="#000000" stroke-dasharray="1,5" points="3262,-146 3262,-274 3646,-274 3646,-146 3262,-146"/>
</g>
<g id="clust63" class="cluster">
<title>cluster_PersonalizzaModule_declarations</title>
<polygon fill="none" stroke="#000000" points="3470,-154 3470,-206 3638,-206 3638,-154 3470,-154"/>
</g>
<g id="clust65" class="cluster">
<title>cluster_PersonalizzaModule_imports</title>
<polygon fill="none" stroke="#000000" points="3270,-154 3270,-206 3462,-206 3462,-154 3270,-154"/>
</g>
<g id="clust75" class="cluster">
<title>cluster_RegisterModule</title>
<polygon fill="none" stroke="#000000" stroke-dasharray="1,5" points="3654,-146 3654,-274 3990,-274 3990,-146 3654,-146"/>
</g>
<g id="clust76" class="cluster">
<title>cluster_RegisterModule_declarations</title>
<polygon fill="none" stroke="#000000" points="3838,-154 3838,-206 3982,-206 3982,-154 3838,-154"/>
</g>
<g id="clust78" class="cluster">
<title>cluster_RegisterModule_imports</title>
<polygon fill="none" stroke="#000000" points="3662,-154 3662,-206 3830,-206 3830,-154 3662,-154"/>
</g>
<g id="clust88" class="cluster">
<title>cluster_SharedModule</title>
<polygon fill="none" stroke="#000000" stroke-dasharray="1,5" points="8,-214 8,-282 1088,-282 1088,-214 8,-214"/>
</g>
<g id="clust89" class="cluster">
<title>cluster_SharedModule_declarations</title>
<polygon fill="none" stroke="#000000" points="558,-222 558,-274 1080,-274 1080,-222 558,-222"/>
</g>
<g id="clust94" class="cluster">
<title>cluster_SharedModule_exports</title>
<polygon fill="none" stroke="#000000" points="16,-222 16,-274 550,-274 550,-222 16,-222"/>
</g>
<!-- AppComponent -->
<g id="node1" class="node">
<title>AppComponent</title>
<polygon fill="#ffffb3" stroke="#000000" points="1723.9399,-198 1618.0601,-198 1618.0601,-162 1723.9399,-162 1723.9399,-198"/>
<text text-anchor="middle" x="1671" y="-175.8" font-family="Times,serif" font-size="14.00" fill="#000000">AppComponent</text>
</g>
<!-- AppModule -->
<g id="node3" class="node">
<title>AppModule</title>
<polygon fill="#8dd3c7" stroke="#000000" points="1439.6571,-266 1436.6571,-270 1415.6571,-270 1412.6571,-266 1356.3429,-266 1356.3429,-230 1439.6571,-230 1439.6571,-266"/>
<text text-anchor="middle" x="1398" y="-243.8" font-family="Times,serif" font-size="14.00" fill="#000000">AppModule</text>
</g>
<!-- AppComponent&#45;&gt;AppModule -->
<g id="edge1" class="edge">
<title>AppComponent&#45;&gt;AppModule</title>
<path fill="none" stroke="#000000" d="M1671,-198.2479C1671,-221.0179 1671,-257 1671,-257 1671,-257 1449.76,-257 1449.76,-257"/>
<polygon fill="#000000" stroke="#000000" points="1449.76,-253.5001 1439.76,-257 1449.76,-260.5001 1449.76,-253.5001"/>
</g>
<!-- MenuComponent -->
<g id="node2" class="node">
<title>MenuComponent</title>
<polygon fill="#ffffb3" stroke="#000000" points="1599.9916,-198 1486.0084,-198 1486.0084,-162 1599.9916,-162 1599.9916,-198"/>
<text text-anchor="middle" x="1543" y="-175.8" font-family="Times,serif" font-size="14.00" fill="#000000">MenuComponent</text>
</g>
<!-- MenuComponent&#45;&gt;AppModule -->
<g id="edge2" class="edge">
<title>MenuComponent&#45;&gt;AppModule</title>
<path fill="none" stroke="#000000" d="M1543,-198.2228C1543,-218.3652 1543,-248 1543,-248 1543,-248 1449.94,-248 1449.94,-248"/>
<polygon fill="#000000" stroke="#000000" points="1449.94,-244.5001 1439.94,-248 1449.94,-251.5001 1449.94,-244.5001"/>
</g>
<!-- AppComponent  -->
<g id="node7" class="node">
<title>AppComponent </title>
<polygon fill="#80b1d3" stroke="#000000" points="1452.439,-334 1343.561,-334 1343.561,-298 1452.439,-298 1452.439,-334"/>
<text text-anchor="middle" x="1398" y="-311.8" font-family="Times,serif" font-size="14.00" fill="#000000">AppComponent </text>
</g>
<!-- AppModule&#45;&gt;AppComponent  -->
<g id="edge6" class="edge">
<title>AppModule&#45;&gt;AppComponent </title>
<path fill="none" stroke="#000000" stroke-dasharray="1,5" d="M1398,-266.2228C1398,-266.2228 1398,-287.7269 1398,-287.7269"/>
<polygon fill="#000000" stroke="#000000" points="1394.5001,-287.7269 1398,-297.7269 1401.5001,-287.727 1394.5001,-287.7269"/>
</g>
<!-- AppRoutingModule -->
<g id="node4" class="node">
<title>AppRoutingModule</title>
<polygon fill="#8dd3c7" stroke="#000000" points="1462.2744,-198 1459.2744,-202 1438.2744,-202 1435.2744,-198 1333.7256,-198 1333.7256,-162 1462.2744,-162 1462.2744,-198"/>
<text text-anchor="middle" x="1398" y="-175.8" font-family="Times,serif" font-size="14.00" fill="#000000">AppRoutingModule</text>
</g>
<!-- AppRoutingModule&#45;&gt;AppModule -->
<g id="edge3" class="edge">
<title>AppRoutingModule&#45;&gt;AppModule</title>
<path fill="none" stroke="#000000" d="M1398,-198.2228C1398,-198.2228 1398,-219.7269 1398,-219.7269"/>
<polygon fill="#000000" stroke="#000000" points="1394.5001,-219.7269 1398,-229.7269 1401.5001,-219.727 1394.5001,-219.7269"/>
</g>
<!-- CoreModule -->
<g id="node5" class="node">
<title>CoreModule</title>
<polygon fill="#8dd3c7" stroke="#000000" points="1315.2619,-198 1312.2619,-202 1291.2619,-202 1288.2619,-198 1228.7381,-198 1228.7381,-162 1315.2619,-162 1315.2619,-198"/>
<text text-anchor="middle" x="1272" y="-175.8" font-family="Times,serif" font-size="14.00" fill="#000000">CoreModule</text>
</g>
<!-- CoreModule&#45;&gt;AppModule -->
<g id="edge4" class="edge">
<title>CoreModule&#45;&gt;AppModule</title>
<path fill="none" stroke="#000000" d="M1272,-198.2228C1272,-218.3652 1272,-248 1272,-248 1272,-248 1346.0438,-248 1346.0438,-248"/>
<polygon fill="#000000" stroke="#000000" points="1346.0439,-251.5001 1356.0438,-248 1346.0438,-244.5001 1346.0439,-251.5001"/>
</g>
<!-- SharedModule -->
<g id="node6" class="node">
<title>SharedModule</title>
<polygon fill="#8dd3c7" stroke="#000000" points="1210.4231,-198 1207.4231,-202 1186.4231,-202 1183.4231,-198 1111.5769,-198 1111.5769,-162 1210.4231,-162 1210.4231,-198"/>
<text text-anchor="middle" x="1161" y="-175.8" font-family="Times,serif" font-size="14.00" fill="#000000">SharedModule</text>
</g>
<!-- SharedModule&#45;&gt;AppModule -->
<g id="edge5" class="edge">
<title>SharedModule&#45;&gt;AppModule</title>
<path fill="none" stroke="#000000" d="M1197.9083,-198.2479C1197.9083,-221.0179 1197.9083,-257 1197.9083,-257 1197.9083,-257 1346.0542,-257 1346.0542,-257"/>
<polygon fill="#000000" stroke="#000000" points="1346.0543,-260.5001 1356.0542,-257 1346.0542,-253.5001 1346.0543,-260.5001"/>
</g>
<!-- CartModule -->
<g id="node11" class="node">
<title>CartModule</title>
<polygon fill="#8dd3c7" stroke="#000000" points="2083.6529,-266 2080.6529,-270 2059.6529,-270 2056.6529,-266 2000.3471,-266 2000.3471,-230 2083.6529,-230 2083.6529,-266"/>
<text text-anchor="middle" x="2042" y="-243.8" font-family="Times,serif" font-size="14.00" fill="#000000">CartModule</text>
</g>
<!-- SharedModule&#45;&gt;CartModule -->
<g id="edge11" class="edge">
<title>SharedModule&#45;&gt;CartModule</title>
<path fill="none" stroke="#000000" d="M1124.0917,-198.0439C1124.0917,-210.5633 1124.0917,-225 1124.0917,-225 1124.0917,-225 2010.2443,-225 2010.2443,-225 2010.2443,-225 2010.2443,-225.4878 2010.2443,-225.4878"/>
<polygon fill="#000000" stroke="#000000" points="2006.7445,-219.8776 2010.2443,-229.8777 2013.7445,-219.8778 2006.7445,-219.8776"/>
</g>
<!-- HomeModule -->
<g id="node16" class="node">
<title>HomeModule</title>
<polygon fill="#8dd3c7" stroke="#000000" points="2609.7619,-266 2606.7619,-270 2585.7619,-270 2582.7619,-266 2516.2381,-266 2516.2381,-230 2609.7619,-230 2609.7619,-266"/>
<text text-anchor="middle" x="2563" y="-243.8" font-family="Times,serif" font-size="14.00" fill="#000000">HomeModule</text>
</g>
<!-- SharedModule&#45;&gt;HomeModule -->
<g id="edge16" class="edge">
<title>SharedModule&#45;&gt;HomeModule</title>
<path fill="none" stroke="#000000" d="M1136.3945,-198.1274C1136.3945,-208.7109 1136.3945,-220 1136.3945,-220 1136.3945,-220 2547.3731,-220 2547.3731,-220 2547.3731,-220 2547.3731,-220.9793 2547.3731,-220.9793"/>
<polygon fill="#000000" stroke="#000000" points="2543.8732,-219.793 2547.3731,-229.793 2550.8732,-219.7931 2543.8732,-219.793"/>
</g>
<!-- LoginModule -->
<g id="node19" class="node">
<title>LoginModule</title>
<polygon fill="#8dd3c7" stroke="#000000" points="2999.493,-266 2996.493,-270 2975.493,-270 2972.493,-266 2906.507,-266 2906.507,-230 2999.493,-230 2999.493,-266"/>
<text text-anchor="middle" x="2953" y="-243.8" font-family="Times,serif" font-size="14.00" fill="#000000">LoginModule</text>
</g>
<!-- SharedModule&#45;&gt;LoginModule -->
<g id="edge19" class="edge">
<title>SharedModule&#45;&gt;LoginModule</title>
<path fill="none" stroke="#000000" d="M1148.6972,-198.1944C1148.6972,-206.2782 1148.6972,-214 1148.6972,-214 1148.6972,-214 2917.0225,-214 2917.0225,-214 2917.0225,-214 2917.0225,-219.8056 2917.0225,-219.8056"/>
<polygon fill="#000000" stroke="#000000" points="2913.5226,-219.8055 2917.0225,-229.8056 2920.5226,-219.8056 2913.5226,-219.8055"/>
</g>
<!-- PersonalizzaModule -->
<g id="node23" class="node">
<title>PersonalizzaModule</title>
<polygon fill="#8dd3c7" stroke="#000000" points="3431.2921,-266 3428.2921,-270 3407.2921,-270 3404.2921,-266 3300.7079,-266 3300.7079,-230 3431.2921,-230 3431.2921,-266"/>
<text text-anchor="middle" x="3366" y="-243.8" font-family="Times,serif" font-size="14.00" fill="#000000">PersonalizzaModule</text>
</g>
<!-- SharedModule&#45;&gt;PersonalizzaModule -->
<g id="edge23" class="edge">
<title>SharedModule&#45;&gt;PersonalizzaModule</title>
<path fill="none" stroke="#000000" d="M1161,-198.2015C1161,-204.028 1161,-209 1161,-209 1161,-209 3344.2847,-209 3344.2847,-209 3344.2847,-209 3344.2847,-219.8701 3344.2847,-219.8701"/>
<polygon fill="#000000" stroke="#000000" points="3340.7848,-219.8701 3344.2847,-229.8701 3347.7848,-219.8701 3340.7848,-219.8701"/>
</g>
<!-- RegisterModule -->
<g id="node26" class="node">
<title>RegisterModule</title>
<polygon fill="#8dd3c7" stroke="#000000" points="3799.2022,-266 3796.2022,-270 3775.2022,-270 3772.2022,-266 3692.7978,-266 3692.7978,-230 3799.2022,-230 3799.2022,-266"/>
<text text-anchor="middle" x="3746" y="-243.8" font-family="Times,serif" font-size="14.00" fill="#000000">RegisterModule</text>
</g>
<!-- SharedModule&#45;&gt;RegisterModule -->
<g id="edge26" class="edge">
<title>SharedModule&#45;&gt;RegisterModule</title>
<path fill="none" stroke="#000000" d="M1173.3028,-198.1903C1173.3028,-201.5376 1173.3028,-204 1173.3028,-204 1173.3028,-204 3728.2997,-204 3728.2997,-204 3728.2997,-204 3728.2997,-219.8495 3728.2997,-219.8495"/>
<polygon fill="#000000" stroke="#000000" points="3724.7998,-219.8494 3728.2997,-229.8495 3731.7998,-219.8495 3724.7998,-219.8494"/>
</g>
<!-- ColoreTestoComponent  -->
<g id="node31" class="node">
<title>ColoreTestoComponent </title>
<polygon fill="#fb8072" stroke="#000000" points="542.0372,-266 387.9628,-266 387.9628,-230 542.0372,-230 542.0372,-266"/>
<text text-anchor="middle" x="465" y="-243.8" font-family="Times,serif" font-size="14.00" fill="#000000">ColoreTestoComponent </text>
</g>
<!-- SharedModule&#45;&gt;ColoreTestoComponent  -->
<g id="edge30" class="edge">
<title>SharedModule&#45;&gt;ColoreTestoComponent </title>
<path fill="none" stroke="#000000" stroke-dasharray="5,2" d="M1111.7813,-180C953.0649,-180 465,-180 465,-180 465,-180 465,-219.7772 465,-219.7772"/>
<polygon fill="#000000" stroke="#000000" points="461.5001,-219.7772 465,-229.7772 468.5001,-219.7773 461.5001,-219.7772"/>
</g>
<!-- NumeriScarpeComponent  -->
<g id="node32" class="node">
<title>NumeriScarpeComponent </title>
<polygon fill="#fb8072" stroke="#000000" points="369.6827,-266 204.3173,-266 204.3173,-230 369.6827,-230 369.6827,-266"/>
<text text-anchor="middle" x="287" y="-243.8" font-family="Times,serif" font-size="14.00" fill="#000000">NumeriScarpeComponent </text>
</g>
<!-- SharedModule&#45;&gt;NumeriScarpeComponent  -->
<g id="edge31" class="edge">
<title>SharedModule&#45;&gt;NumeriScarpeComponent </title>
<path fill="none" stroke="#000000" stroke-dasharray="5,2" d="M1111.5058,-174C926.6166,-174 287,-174 287,-174 287,-174 287,-219.7079 287,-219.7079"/>
<polygon fill="#000000" stroke="#000000" points="283.5001,-219.7078 287,-229.7079 290.5001,-219.7079 283.5001,-219.7078"/>
</g>
<!-- TipoChiusuraComponent  -->
<g id="node33" class="node">
<title>TipoChiusuraComponent </title>
<polygon fill="#fb8072" stroke="#000000" points="185.8227,-266 24.1773,-266 24.1773,-230 185.8227,-230 185.8227,-266"/>
<text text-anchor="middle" x="105" y="-243.8" font-family="Times,serif" font-size="14.00" fill="#000000">TipoChiusuraComponent </text>
</g>
<!-- SharedModule&#45;&gt;TipoChiusuraComponent  -->
<g id="edge32" class="edge">
<title>SharedModule&#45;&gt;TipoChiusuraComponent </title>
<path fill="none" stroke="#000000" stroke-dasharray="5,2" d="M1111.4833,-168C902.7081,-168 105,-168 105,-168 105,-168 105,-219.8468 105,-219.8468"/>
<polygon fill="#000000" stroke="#000000" points="101.5001,-219.8467 105,-229.8468 108.5001,-219.8468 101.5001,-219.8467"/>
</g>
<!-- AddressComponent -->
<g id="node8" class="node">
<title>AddressComponent</title>
<polygon fill="#ffffb3" stroke="#000000" points="2181.7036,-198 2054.2964,-198 2054.2964,-162 2181.7036,-162 2181.7036,-198"/>
<text text-anchor="middle" x="2118" y="-175.8" font-family="Times,serif" font-size="14.00" fill="#000000">AddressComponent</text>
</g>
<!-- AddressComponent&#45;&gt;CartModule -->
<g id="edge7" class="edge">
<title>AddressComponent&#45;&gt;CartModule</title>
<path fill="none" stroke="#000000" d="M2069.1122,-198.2228C2069.1122,-198.2228 2069.1122,-219.7269 2069.1122,-219.7269"/>
<polygon fill="#000000" stroke="#000000" points="2065.6123,-219.7269 2069.1122,-229.7269 2072.6123,-219.727 2065.6123,-219.7269"/>
</g>
<!-- CartComponent -->
<g id="node9" class="node">
<title>CartComponent</title>
<polygon fill="#ffffb3" stroke="#000000" points="2453.9357,-198 2348.0643,-198 2348.0643,-162 2453.9357,-162 2453.9357,-198"/>
<text text-anchor="middle" x="2401" y="-175.8" font-family="Times,serif" font-size="14.00" fill="#000000">CartComponent</text>
</g>
<!-- CartComponent&#45;&gt;CartModule -->
<g id="edge8" class="edge">
<title>CartComponent&#45;&gt;CartModule</title>
<path fill="none" stroke="#000000" d="M2401,-198.2921C2401,-220.2057 2401,-254 2401,-254 2401,-254 2093.8845,-254 2093.8845,-254"/>
<polygon fill="#000000" stroke="#000000" points="2093.8845,-250.5001 2083.8845,-254 2093.8844,-257.5001 2093.8845,-250.5001"/>
</g>
<!-- PaymentComponent -->
<g id="node10" class="node">
<title>PaymentComponent</title>
<polygon fill="#ffffb3" stroke="#000000" points="2330.3258,-198 2199.6742,-198 2199.6742,-162 2330.3258,-162 2330.3258,-198"/>
<text text-anchor="middle" x="2265" y="-175.8" font-family="Times,serif" font-size="14.00" fill="#000000">PaymentComponent</text>
</g>
<!-- PaymentComponent&#45;&gt;CartModule -->
<g id="edge9" class="edge">
<title>PaymentComponent&#45;&gt;CartModule</title>
<path fill="none" stroke="#000000" d="M2265,-198.2667C2265,-216.5552 2265,-242 2265,-242 2265,-242 2093.683,-242 2093.683,-242"/>
<polygon fill="#000000" stroke="#000000" points="2093.683,-238.5001 2083.683,-242 2093.683,-245.5001 2093.683,-238.5001"/>
</g>
<!-- CartRoutingModule -->
<g id="node12" class="node">
<title>CartRoutingModule</title>
<polygon fill="#8dd3c7" stroke="#000000" points="2030.2702,-198 2027.2702,-202 2006.2702,-202 2003.2702,-198 1901.7298,-198 1901.7298,-162 2030.2702,-162 2030.2702,-198"/>
<text text-anchor="middle" x="1966" y="-175.8" font-family="Times,serif" font-size="14.00" fill="#000000">CartRoutingModule</text>
</g>
<!-- CartRoutingModule&#45;&gt;CartModule -->
<g id="edge10" class="edge">
<title>CartRoutingModule&#45;&gt;CartModule</title>
<path fill="none" stroke="#000000" d="M2020.3146,-198.2228C2020.3146,-198.2228 2020.3146,-219.7269 2020.3146,-219.7269"/>
<polygon fill="#000000" stroke="#000000" points="2016.8147,-219.7269 2020.3146,-229.7269 2023.8147,-219.727 2016.8147,-219.7269"/>
</g>
<!-- CartService -->
<g id="node13" class="node">
<title>CartService</title>
<ellipse fill="#fdb462" stroke="#000000" cx="1821" cy="-180" rx="56.7348" ry="18"/>
<text text-anchor="middle" x="1821" y="-175.8" font-family="Times,serif" font-size="14.00" fill="#000000">CartService</text>
</g>
<!-- CartService&#45;&gt;CartModule -->
<g id="edge12" class="edge">
<title>CartService&#45;&gt;CartModule</title>
<path fill="none" stroke="#000000" d="M1821,-198.0225C1821,-215.3734 1821,-239 1821,-239 1821,-239 1990.1718,-239 1990.1718,-239"/>
<polygon fill="#000000" stroke="#000000" points="1990.1718,-242.5001 2000.1718,-239 1990.1717,-235.5001 1990.1718,-242.5001"/>
</g>
<!-- HttpCommunicationService -->
<g id="node14" class="node">
<title>HttpCommunicationService</title>
<ellipse fill="#fdb462" stroke="#000000" cx="1272" cy="-104" rx="119.2807" ry="18"/>
<text text-anchor="middle" x="1272" y="-99.8" font-family="Times,serif" font-size="14.00" fill="#000000">HttpCommunicationService</text>
</g>
<!-- HttpCommunicationService&#45;&gt;CoreModule -->
<g id="edge13" class="edge">
<title>HttpCommunicationService&#45;&gt;CoreModule</title>
<path fill="none" stroke="#000000" d="M1272,-122.0109C1272,-122.0109 1272,-151.855 1272,-151.855"/>
<polygon fill="#000000" stroke="#000000" points="1268.5001,-151.8549 1272,-161.855 1275.5001,-151.855 1268.5001,-151.8549"/>
</g>
<!-- HomeComponent -->
<g id="node15" class="node">
<title>HomeComponent</title>
<polygon fill="#ffffb3" stroke="#000000" points="2771.5451,-198 2656.4549,-198 2656.4549,-162 2771.5451,-162 2771.5451,-198"/>
<text text-anchor="middle" x="2714" y="-175.8" font-family="Times,serif" font-size="14.00" fill="#000000">HomeComponent</text>
</g>
<!-- HomeComponent&#45;&gt;HomeModule -->
<g id="edge14" class="edge">
<title>HomeComponent&#45;&gt;HomeModule</title>
<path fill="none" stroke="#000000" d="M2714,-198.2228C2714,-218.3652 2714,-248 2714,-248 2714,-248 2619.9496,-248 2619.9496,-248"/>
<polygon fill="#000000" stroke="#000000" points="2619.9497,-244.5001 2609.9496,-248 2619.9496,-251.5001 2619.9497,-244.5001"/>
</g>
<!-- HomeRoutingModule -->
<g id="node17" class="node">
<title>HomeRoutingModule</title>
<polygon fill="#8dd3c7" stroke="#000000" points="2632.3795,-198 2629.3795,-202 2608.3795,-202 2605.3795,-198 2493.6205,-198 2493.6205,-162 2632.3795,-162 2632.3795,-198"/>
<text text-anchor="middle" x="2563" y="-175.8" font-family="Times,serif" font-size="14.00" fill="#000000">HomeRoutingModule</text>
</g>
<!-- HomeRoutingModule&#45;&gt;HomeModule -->
<g id="edge15" class="edge">
<title>HomeRoutingModule&#45;&gt;HomeModule</title>
<path fill="none" stroke="#000000" d="M2578.6269,-198.2228C2578.6269,-198.2228 2578.6269,-219.7269 2578.6269,-219.7269"/>
<polygon fill="#000000" stroke="#000000" points="2575.127,-219.7269 2578.6269,-229.7269 2582.127,-219.727 2575.127,-219.7269"/>
</g>
<!-- LoginComponent -->
<g id="node18" class="node">
<title>LoginComponent</title>
<polygon fill="#ffffb3" stroke="#000000" points="3238.2758,-198 3123.7242,-198 3123.7242,-162 3238.2758,-162 3238.2758,-198"/>
<text text-anchor="middle" x="3181" y="-175.8" font-family="Times,serif" font-size="14.00" fill="#000000">LoginComponent</text>
</g>
<!-- LoginComponent&#45;&gt;LoginModule -->
<g id="edge17" class="edge">
<title>LoginComponent&#45;&gt;LoginModule</title>
<path fill="none" stroke="#000000" d="M3181,-198.2228C3181,-218.3652 3181,-248 3181,-248 3181,-248 3009.6894,-248 3009.6894,-248"/>
<polygon fill="#000000" stroke="#000000" points="3009.6894,-244.5001 2999.6894,-248 3009.6893,-251.5001 3009.6894,-244.5001"/>
</g>
<!-- LoginRoutingModule -->
<g id="node20" class="node">
<title>LoginRoutingModule</title>
<polygon fill="#8dd3c7" stroke="#000000" points="3100.1108,-198 3097.1108,-202 3076.1108,-202 3073.1108,-198 2961.8892,-198 2961.8892,-162 3100.1108,-162 3100.1108,-198"/>
<text text-anchor="middle" x="3031" y="-175.8" font-family="Times,serif" font-size="14.00" fill="#000000">LoginRoutingModule</text>
</g>
<!-- LoginRoutingModule&#45;&gt;LoginModule -->
<g id="edge18" class="edge">
<title>LoginRoutingModule&#45;&gt;LoginModule</title>
<path fill="none" stroke="#000000" d="M2980.7206,-198.2228C2980.7206,-198.2228 2980.7206,-219.7269 2980.7206,-219.7269"/>
<polygon fill="#000000" stroke="#000000" points="2977.2206,-219.7269 2980.7206,-229.7269 2984.2206,-219.727 2977.2206,-219.7269"/>
</g>
<!-- LoginService -->
<g id="node21" class="node">
<title>LoginService</title>
<ellipse fill="#fdb462" stroke="#000000" cx="2875" cy="-180" rx="63.1209" ry="18"/>
<text text-anchor="middle" x="2875" y="-175.8" font-family="Times,serif" font-size="14.00" fill="#000000">LoginService</text>
</g>
<!-- LoginService&#45;&gt;LoginModule -->
<g id="edge20" class="edge">
<title>LoginService&#45;&gt;LoginModule</title>
<path fill="none" stroke="#000000" d="M2927.5414,-190.0336C2927.5414,-190.0336 2927.5414,-219.9948 2927.5414,-219.9948"/>
<polygon fill="#000000" stroke="#000000" points="2924.0415,-219.9947 2927.5414,-229.9948 2931.0415,-219.9948 2924.0415,-219.9947"/>
</g>
<!-- PersonalizzaComponent -->
<g id="node22" class="node">
<title>PersonalizzaComponent</title>
<polygon fill="#ffffb3" stroke="#000000" points="3630.0744,-198 3477.9256,-198 3477.9256,-162 3630.0744,-162 3630.0744,-198"/>
<text text-anchor="middle" x="3554" y="-175.8" font-family="Times,serif" font-size="14.00" fill="#000000">PersonalizzaComponent</text>
</g>
<!-- PersonalizzaComponent&#45;&gt;PersonalizzaModule -->
<g id="edge21" class="edge">
<title>PersonalizzaComponent&#45;&gt;PersonalizzaModule</title>
<path fill="none" stroke="#000000" d="M3554,-198.2228C3554,-218.3652 3554,-248 3554,-248 3554,-248 3441.2257,-248 3441.2257,-248"/>
<polygon fill="#000000" stroke="#000000" points="3441.2257,-244.5001 3431.2257,-248 3441.2256,-251.5001 3441.2257,-244.5001"/>
</g>
<!-- PersonalizzaRoutingModule -->
<g id="node24" class="node">
<title>PersonalizzaRoutingModule</title>
<polygon fill="#8dd3c7" stroke="#000000" points="3453.9101,-198 3450.9101,-202 3429.9101,-202 3426.9101,-198 3278.0899,-198 3278.0899,-162 3453.9101,-162 3453.9101,-198"/>
<text text-anchor="middle" x="3366" y="-175.8" font-family="Times,serif" font-size="14.00" fill="#000000">PersonalizzaRoutingModule</text>
</g>
<!-- PersonalizzaRoutingModule&#45;&gt;PersonalizzaModule -->
<g id="edge22" class="edge">
<title>PersonalizzaRoutingModule&#45;&gt;PersonalizzaModule</title>
<path fill="none" stroke="#000000" d="M3387.7153,-198.2228C3387.7153,-198.2228 3387.7153,-219.7269 3387.7153,-219.7269"/>
<polygon fill="#000000" stroke="#000000" points="3384.2154,-219.7269 3387.7153,-229.7269 3391.2154,-219.727 3384.2154,-219.7269"/>
</g>
<!-- RegisterComponent -->
<g id="node25" class="node">
<title>RegisterComponent</title>
<polygon fill="#ffffb3" stroke="#000000" points="3973.9846,-198 3846.0154,-198 3846.0154,-162 3973.9846,-162 3973.9846,-198"/>
<text text-anchor="middle" x="3910" y="-175.8" font-family="Times,serif" font-size="14.00" fill="#000000">RegisterComponent</text>
</g>
<!-- RegisterComponent&#45;&gt;RegisterModule -->
<g id="edge24" class="edge">
<title>RegisterComponent&#45;&gt;RegisterModule</title>
<path fill="none" stroke="#000000" d="M3910,-198.2228C3910,-218.3652 3910,-248 3910,-248 3910,-248 3809.2461,-248 3809.2461,-248"/>
<polygon fill="#000000" stroke="#000000" points="3809.2461,-244.5001 3799.2461,-248 3809.2461,-251.5001 3809.2461,-244.5001"/>
</g>
<!-- RegisterRoutingModule -->
<g id="node27" class="node">
<title>RegisterRoutingModule</title>
<polygon fill="#8dd3c7" stroke="#000000" points="3821.8201,-198 3818.8201,-202 3797.8201,-202 3794.8201,-198 3670.1799,-198 3670.1799,-162 3821.8201,-162 3821.8201,-198"/>
<text text-anchor="middle" x="3746" y="-175.8" font-family="Times,serif" font-size="14.00" fill="#000000">RegisterRoutingModule</text>
</g>
<!-- RegisterRoutingModule&#45;&gt;RegisterModule -->
<g id="edge25" class="edge">
<title>RegisterRoutingModule&#45;&gt;RegisterModule</title>
<path fill="none" stroke="#000000" d="M3763.7003,-198.2228C3763.7003,-198.2228 3763.7003,-219.7269 3763.7003,-219.7269"/>
<polygon fill="#000000" stroke="#000000" points="3760.2004,-219.7269 3763.7003,-229.7269 3767.2004,-219.727 3760.2004,-219.7269"/>
</g>
<!-- ColoreTestoComponent -->
<g id="node28" class="node">
<title>ColoreTestoComponent</title>
<polygon fill="#ffffb3" stroke="#000000" points="1072.0379,-266 921.9621,-266 921.9621,-230 1072.0379,-230 1072.0379,-266"/>
<text text-anchor="middle" x="997" y="-243.8" font-family="Times,serif" font-size="14.00" fill="#000000">ColoreTestoComponent</text>
</g>
<!-- ColoreTestoComponent&#45;&gt;SharedModule -->
<g id="edge27" class="edge">
<title>ColoreTestoComponent&#45;&gt;SharedModule</title>
<path fill="none" stroke="#000000" d="M1072.0838,-239C1124.6799,-239 1185.6056,-239 1185.6056,-239 1185.6056,-239 1185.6056,-208.0225 1185.6056,-208.0225"/>
<polygon fill="#000000" stroke="#000000" points="1189.1056,-208.0225 1185.6056,-198.0225 1182.1056,-208.0226 1189.1056,-208.0225"/>
</g>
<!-- NumeriScarpeComponent -->
<g id="node29" class="node">
<title>NumeriScarpeComponent</title>
<polygon fill="#ffffb3" stroke="#000000" points="904.1825,-266 741.8175,-266 741.8175,-230 904.1825,-230 904.1825,-266"/>
<text text-anchor="middle" x="823" y="-243.8" font-family="Times,serif" font-size="14.00" fill="#000000">NumeriScarpeComponent</text>
</g>
<!-- NumeriScarpeComponent&#45;&gt;SharedModule -->
<g id="edge28" class="edge">
<title>NumeriScarpeComponent&#45;&gt;SharedModule</title>
<path fill="none" stroke="#000000" d="M823,-229.973C823,-213.6024 823,-192 823,-192 823,-192 1101.4899,-192 1101.4899,-192"/>
<polygon fill="#000000" stroke="#000000" points="1101.49,-195.5001 1111.4899,-192 1101.4899,-188.5001 1101.49,-195.5001"/>
</g>
<!-- TipoChiusuraComponent -->
<g id="node30" class="node">
<title>TipoChiusuraComponent</title>
<polygon fill="#ffffb3" stroke="#000000" points="724.3229,-266 565.6771,-266 565.6771,-230 724.3229,-230 724.3229,-266"/>
<text text-anchor="middle" x="645" y="-243.8" font-family="Times,serif" font-size="14.00" fill="#000000">TipoChiusuraComponent</text>
</g>
<!-- TipoChiusuraComponent&#45;&gt;SharedModule -->
<g id="edge29" class="edge">
<title>TipoChiusuraComponent&#45;&gt;SharedModule</title>
<path fill="none" stroke="#000000" d="M645,-229.7333C645,-211.4448 645,-186 645,-186 645,-186 1101.5238,-186 1101.5238,-186"/>
<polygon fill="#000000" stroke="#000000" points="1101.5238,-189.5001 1111.5238,-186 1101.5237,-182.5001 1101.5238,-189.5001"/>
</g>
</g>
</svg>
